<svg xmlns="http://www.w3.org/2000/svg" viewBox="0 0 340.26 340.2"><g data-name="レイヤー 2"><path d="m337.65 199.94 2.61-29.85-32.47-11.41-3.92-23.26 26.77-21.82-12.28-27-34.24 5.52-15.31-18.65 12-32.56-24.32-17.4-27.08 21.81-23.17-8.56L200 2.61 170.13 0l-11.42 32.46-23.27 3.92-21.82-26.76-27 12.27 5.51 34.23-18.65 15.32-32.56-12-17.4 24.32 21.81 27.07L36.76 134l-34.15 6.26L0 170.09l32.46 11.42 3.93 23.27L9.62 226.6l12.28 27 34.24-5.52 15.31 18.62-12 32.56 24.31 17.39 27.07-21.8 23.17 8.59 6.27 34.15 29.85 2.61 11.42-32.46 23.27-3.92 21.82 26.76 27-12.28-5.52-34.23 18.62-15.31 32.56 12 17.4-24.31-21.81-27.07 8.56-23.16zm-211.41 15.87a10.47 10.47 0 1 1 10.47 10.46 10.47 10.47 0 0 1-10.47-10.46zm82.56-27.18A10.32 10.32 0 0 1 198.48 199H174.9v-66h16.44v-13.93h-48.78v13.84H159v66h-21.28a10.32 10.32 0 0 1-10.32-10.32v-66.52a10.32 10.32 0 0 1 10.32-10.32h60.76a10.32 10.32 0 0 1 10.32 10.32zm-38.67 94.8a113.1 113.1 0 0 1-39.19-7l10.42-40.31h51.17l10.93 42.29a113.57 113.57 0 0 1-33.33 5.02zM196 226.27a10.47 10.47 0 1 1 10.47-10.46A10.46 10.46 0 0 1 196 226.27zm22.77 46.21-9.51-36.57a20.57 20.57 0 0 0 18.14-20.39V110.3a20.64 20.64 0 0 0-20.64-20.64h-77.32a20.64 20.64 0 0 0-20.64 20.64v105.22a20.6 20.6 0 0 0 15.79 20l-8.74 34.09a113.35 113.35 0 1 1 102.93 2.87z" style="fill:#fff" data-name="レイヤー 1"/></g></svg>